<?xml version="1.0" encoding="utf-8"?>
<!-- Generator: Adobe Illustrator 21.0.2, SVG Export Plug-In . SVG Version: 6.00 Build 0)  -->
<svg version="1.1" id="Ebene_1" xmlns="http://www.w3.org/2000/svg" xmlns:xlink="http://www.w3.org/1999/xlink" x="0px" y="0px"
	 viewBox="0 0 80 80" style="enable-background:new 0 0 80 80;" xml:space="preserve">
<style type="text/css">
	.st0{fill:#FFFFFF;}
	.st1{fill:#D40037;}
</style>
<g>
	<path class="st0" d="M12,78.5C6.2,78.5,1.5,73.8,1.5,68V12C1.5,6.2,6.2,1.5,12,1.5h56c5.8,0,10.5,4.7,10.5,10.5v56
		c0,5.8-4.7,10.5-10.5,10.5H12z"/>
	<path class="st1" d="M68,3c5,0,9,4,9,9v56c0,5-4,9-9,9H12c-5,0-9-4-9-9V12c0-5,4-9,9-9H68 M68,0H12C5.4,0,0,5.4,0,12v56
		c0,6.6,5.4,12,12,12h56c6.6,0,12-5.4,12-12V12C80,5.4,74.6,0,68,0L68,0z"/>
</g>
<g>
	<path class="st1" d="M8.9,59.4l12.9-20.3L10.6,20.7c0.9-0.3,2.3-0.5,4.1-0.5c0.7,0,1.4,0,2,0.1c0.7,0.1,1.2,0.2,1.5,0.3l0.5,0.1
		l7.9,12.9l8.2-12.9c1.2-0.3,2.4-0.5,3.6-0.5c1.4,0,2.6,0.2,3.7,0.5l-11.4,18l12.6,20.4c-0.9,0.4-2.3,0.7-4.1,0.7
		c-0.7,0-1.4,0-2-0.1c-0.7-0.1-1.1-0.2-1.4-0.3l-0.5-0.1l-9.2-15l-9.6,15.1c-1.1,0.3-2.2,0.4-3.4,0.4C11.3,59.8,9.9,59.7,8.9,59.4z"
		/>
	<path class="st1" d="M48.3,59.8V20.7c0.8-0.3,1.9-0.5,3.5-0.5c0.7,0,1.3,0,1.9,0.1c0.6,0.1,1,0.2,1.2,0.3l0.4,0.1v33.1h15.8
		c0.4,0.8,0.5,1.8,0.5,3c0,0.9-0.2,1.9-0.5,3H48.3z"/>
</g>
</svg>
