<?xml version="1.0" encoding="utf-8"?>
<!-- Generator: Adobe Illustrator 21.0.2, SVG Export Plug-In . SVG Version: 6.00 Build 0)  -->
<svg version="1.1" id="Ebene_1" xmlns="http://www.w3.org/2000/svg" xmlns:xlink="http://www.w3.org/1999/xlink" x="0px" y="0px"
	 viewBox="0 0 80 80" style="enable-background:new 0 0 80 80;" xml:space="preserve">
<style type="text/css">
	.st0{fill:#FFFFFF;}
	.st1{fill:#D40037;}
</style>
<g>
	<path class="st0" d="M12,78.5C6.2,78.5,1.5,73.8,1.5,68V12C1.5,6.2,6.2,1.5,12,1.5h56c5.8,0,10.5,4.7,10.5,10.5v56
		c0,5.8-4.7,10.5-10.5,10.5H12z"/>
	<path class="st1" d="M68,3c5,0,9,4,9,9v56c0,5-4,9-9,9H12c-5,0-9-4-9-9V12c0-5,4-9,9-9H68 M68,0H12C5.4,0,0,5.4,0,12v56
		c0,6.6,5.4,12,12,12h56c6.6,0,12-5.4,12-12V12C80,5.4,74.6,0,68,0L68,0z"/>
</g>
<g>
	<path class="st1" d="M30.7,59.8V20.7c0.8-0.3,1.9-0.5,3.5-0.5c0.7,0,1.3,0,1.9,0.1c0.6,0.1,1,0.2,1.2,0.3l0.4,0.1v33.1h15.8
		c0.4,0.8,0.5,1.8,0.5,3c0,0.9-0.2,1.9-0.5,3H30.7z"/>
</g>
</svg>
