<?xml version="1.0" encoding="utf-8"?>
<!-- Generator: Adobe Illustrator 21.0.2, SVG Export Plug-In . SVG Version: 6.00 Build 0)  -->
<svg version="1.1" id="Ebene_1" xmlns="http://www.w3.org/2000/svg" xmlns:xlink="http://www.w3.org/1999/xlink" x="0px" y="0px"
	 viewBox="0 0 80 80" style="enable-background:new 0 0 80 80;" xml:space="preserve">
<style type="text/css">
	.st0{fill:#FFFFFF;}
	.st1{fill:#D40037;}
</style>
<g>
	<path class="st0" d="M12,78.5C6.2,78.5,1.5,73.8,1.5,68V12C1.5,6.2,6.2,1.5,12,1.5h56c5.8,0,10.5,4.7,10.5,10.5v56
		c0,5.8-4.7,10.5-10.5,10.5H12z"/>
	<path class="st1" d="M68,3c5,0,9,4,9,9v56c0,5-4,9-9,9H12c-5,0-9-4-9-9V12c0-5,4-9,9-9H68 M68,0H12C5.4,0,0,5.4,0,12v56
		c0,6.6,5.4,12,12,12h56c6.6,0,12-5.4,12-12V12C80,5.4,74.6,0,68,0L68,0z"/>
</g>
<g>
	<path class="st1" d="M27,58c0-0.1,0-0.2,0-0.3c0-1.9,0.6-3.6,1.7-5.3c0.4,0.1,0.9,0.3,1.6,0.5c0.7,0.2,1.9,0.4,3.7,0.8
		s3.5,0.5,5,0.5c2.5,0,4.4-0.4,5.5-1.3c1.2-0.9,1.7-2.2,1.7-4c0-0.7-0.1-1.4-0.4-1.9c-0.3-0.6-0.7-1.1-1.3-1.5s-1.1-0.8-1.8-1.1
		s-1.4-0.6-2.3-0.9c-0.5-0.2-1.2-0.4-2.2-0.8c-1-0.3-1.8-0.6-2.3-0.8c-0.6-0.2-1.3-0.5-2.2-0.9c-0.9-0.4-1.6-0.8-2.2-1.1
		s-1.2-0.8-1.8-1.4c-0.7-0.6-1.2-1.2-1.5-1.8c-0.4-0.6-0.7-1.4-0.9-2.3S27,32.3,27,31.3c0-3.6,1.2-6.4,3.5-8.5
		c2.3-2.1,5.8-3.1,10.3-3.1c2,0,3.9,0.1,5.7,0.4c1.8,0.3,3.2,0.6,4,0.8l1.2,0.4c0,1-0.2,2-0.5,3c-0.3,1-0.8,1.8-1.4,2.5
		c-0.3-0.1-0.6-0.2-1.1-0.3c-0.5-0.1-1.4-0.3-2.9-0.5c-1.4-0.2-2.8-0.3-4.2-0.3c-5.3,0-7.9,1.8-7.9,5.4c0,0.5,0.1,0.9,0.3,1.3
		c0.2,0.4,0.4,0.8,0.8,1.1c0.4,0.3,0.8,0.6,1.2,0.9c0.4,0.3,0.9,0.5,1.6,0.8s1.3,0.5,1.8,0.7c0.5,0.2,1.2,0.4,2,0.7
		c0.9,0.3,1.5,0.5,2,0.7c0.9,0.3,1.7,0.7,2.4,1s1.5,0.7,2.2,1.2c0.8,0.5,1.5,1,2,1.6c0.6,0.6,1.1,1.2,1.6,2c0.5,0.7,0.8,1.6,1.1,2.6
		c0.2,1,0.4,2,0.4,3.2c0,3.8-1.2,6.7-3.5,8.7c-2.4,2-5.9,3-10.5,3c-2.2,0-4.4-0.2-6.4-0.6c-2-0.4-3.5-0.8-4.4-1.2L27,58z"/>
</g>
</svg>
