<?xml version="1.0" encoding="utf-8"?>
<!-- Generator: Adobe Illustrator 21.0.2, SVG Export Plug-In . SVG Version: 6.00 Build 0)  -->
<svg version="1.1" id="Ebene_1" xmlns="http://www.w3.org/2000/svg" xmlns:xlink="http://www.w3.org/1999/xlink" x="0px" y="0px"
	 viewBox="0 0 80 80" style="enable-background:new 0 0 80 80;" xml:space="preserve">
<style type="text/css">
	.st0{fill:#FFFFFF;}
	.st1{fill:#D40037;}
</style>
<g>
	<path class="st0" d="M12,78.5C6.2,78.5,1.5,73.8,1.5,68V12C1.5,6.2,6.2,1.5,12,1.5h56c5.8,0,10.5,4.7,10.5,10.5v56
		c0,5.8-4.7,10.5-10.5,10.5H12z"/>
	<path class="st1" d="M68,3c5,0,9,4,9,9v56c0,5-4,9-9,9H12c-5,0-9-4-9-9V12c0-5,4-9,9-9H68 M68,0H12C5.4,0,0,5.4,0,12v56
		c0,6.6,5.4,12,12,12h56c6.6,0,12-5.4,12-12V12C80,5.4,74.6,0,68,0L68,0z"/>
</g>
<g>
	<path class="st1" d="M21.6,59.3V20.7c1.2-0.3,2.6-0.5,4.3-0.5c0.6,0,1.3,0,2,0.1c0.7,0.1,1.2,0.2,1.6,0.3l0.6,0.1l5,10.1
		c2.5,5.2,4.1,8.7,4.7,10.8h0.3c0.6-2,1.4-3.9,2.2-5.7c2-4.1,4.4-9.1,7.1-15.1c1.6-0.3,3.1-0.5,4.5-0.5c0.8,0,1.6,0,2.3,0.1
		c0.8,0.1,1.3,0.2,1.7,0.3l0.5,0.1v38.6c-0.8,0.3-2,0.5-3.5,0.5c-0.7,0-1.3,0-1.9-0.1c-0.6-0.1-1-0.2-1.3-0.3l-0.4-0.1V47.3
		c0-0.8,0-2.3,0-4.6c0-2.3,0-4,0-5.2c0-1.2,0-2.7,0.1-4.3c0.1-1.6,0.2-3,0.3-4.1h-0.3c-0.2,0.8-0.6,1.8-1.1,3.1
		c-0.5,1.3-1,2.3-1.4,3.2c-0.4,0.9-1,2.2-1.9,4c-0.9,1.8-1.4,3-1.7,3.5L41.6,51c-0.5,0.2-1.2,0.3-2,0.3c-0.4,0-0.7,0-1-0.1
		s-0.5-0.1-0.6-0.1L37.8,51c-0.3-0.6-0.9-1.8-1.8-3.6c-0.9-1.8-1.6-3.2-2.1-4.2c-1.2-2.4-2-4.1-2.6-5.3c-0.5-1.1-1.2-2.6-2-4.5
		c-0.8-1.9-1.3-3.3-1.6-4.4h-0.3c0.1,0.6,0.2,1.4,0.3,2.2c0.1,0.9,0.2,1.7,0.2,2.5c0,0.8,0.1,1.8,0.1,3c0,1.3,0,2.2,0,2.9
		c0,0.3,0,0.8,0,1.3c0,0.5,0,1.2,0,1.9c0,1.5,0,2.5,0,2.9v13.4c-0.8,0.3-1.9,0.5-3.3,0.5c-0.6,0-1.1,0-1.7-0.1
		c-0.5-0.1-0.9-0.2-1.2-0.3L21.6,59.3z"/>
</g>
</svg>
